<?xml version="1.0" encoding="utf-8"?>
<!-- Generator: Adobe Illustrator 17.1.0, SVG Export Plug-In . SVG Version: 6.00 Build 0)  -->
<!DOCTYPE svg PUBLIC "-//W3C//DTD SVG 1.1//EN" "http://www.w3.org/Graphics/SVG/1.1/DTD/svg11.dtd">
<svg version="1.1" id="Layer_1" xmlns="http://www.w3.org/2000/svg" xmlns:xlink="http://www.w3.org/1999/xlink" x="0px" y="0px"
	 viewBox="0 0 80.9 39.3" enable-background="new 0 0 80.9 39.3" xml:space="preserve">
<g>
	<g>
		<path fill="#FFFFFF" d="M27.1,39.2c-1.2-1-2.3-2.2-3.2-3.5c-1.7-2.5-2.6-5.2-3.1-8.1c-0.5-2.8-0.7-5.7-0.6-8.5
			c0.1-2.3,0.5-4.6,1.1-6.8c1-3.8,2.3-7.5,4-11c0-0.1,0.1-0.2,0.2-0.2c0,0.2,0,0.5-0.1,0.7c-0.1,2.9,0.2,5.8,1.3,8.5
			c1.1,2.7,3,4.8,5.3,6.5c1.7,1.3,3.5,2.3,5.4,3.2c-0.9,0.1-1.7,0.1-2.5,0.3c-2.3,0.3-4.3,1.1-6,2.7c-1.3,1.3-1.9,2.9-2.3,4.7
			c-0.4,1.9-0.4,3.8-0.2,5.8C26.7,35.4,26.9,37.3,27.1,39.2z"/>
		<path fill="#FFFFFF" d="M1.5,20c0.9-0.5,1.8-1,2.7-1.4c2-1.1,3.9-2.5,5.4-4.2c1.9-2.2,3.1-4.7,3.6-7.6c0.3-1.9,0.4-3.8,0.3-5.8
			c0.1,0.2,0.2,0.3,0.3,0.5c1.9,4,3.4,8.1,4.3,12.5c0.6,2.8,0.8,5.7,0.7,8.5c-0.2,3.3-0.6,6.5-1.8,9.5c-1,2.6-2.5,4.8-4.5,6.7
			c-0.2,0.2-0.4,0.3-0.7,0.5c0.1-0.8,0.2-1.5,0.3-2.2c0.3-2.4,0.5-4.8,0.4-7.2c-0.1-1.8-0.5-3.6-1.4-5.2c-1.1-1.9-2.7-3.1-4.7-3.8
			c-1.3-0.4-2.6-0.7-3.9-0.7C2.2,20.1,1.9,20,1.5,20z"/>
		<path fill="#FFFFFF" d="M68.8,21.8c0.2,0.1,0.3,0.1,0.4,0.2c1.2,0.8,2.5,1.3,3.9,1.2c0.4,0,0.7-0.1,1.1-0.2
			c0.3-0.1,0.5-0.4,0.5-0.7c0-0.4-0.2-0.7-0.5-0.8c-0.6-0.2-1.2-0.3-1.8-0.5c-0.9-0.2-1.9-0.4-2.7-1.1c-1.1-0.9-1.2-2.8-0.3-3.8
			c0.8-0.9,1.9-1.3,3-1.4c1.4-0.1,2.8,0.1,4.1,0.5c0.2,0.1,0.3,0.2,0.3,0.4c0,0.6,0,1.3,0,2c-0.2-0.1-0.3-0.1-0.5-0.2
			c-1.2-0.8-2.6-1.1-4-0.9c-0.2,0-0.5,0.2-0.6,0.3c-0.5,0.4-0.5,1.1,0.2,1.4c0.6,0.2,1.2,0.3,1.8,0.5c0.7,0.2,1.5,0.4,2.2,0.7
			c1.9,0.8,1.7,3.2,0.7,4.2c-0.7,0.8-1.6,1.2-2.7,1.3c-1.7,0.3-3.3,0-4.9-0.6c-0.2-0.1-0.3-0.2-0.3-0.4
			C68.8,23.2,68.8,22.6,68.8,21.8z"/>
		<path fill="#FFFFFF" d="M67.1,22.9c0,0.6,0,1.1,0,1.6c0,0.2-0.1,0.3-0.3,0.3c-0.6,0-1.2,0-1.8,0c-1.6,0-3.1,0-4.7,0
			c-0.3,0-0.4-0.1-0.4-0.4c0-3.1,0-6.2,0-9.2c0-0.1,0-0.2,0-0.4c2.4,0,4.8,0,7.2,0c0,0.6,0,1.2,0,1.8c-1.6,0-3.1,0-4.7,0
			c0,0.6,0,1.1,0,1.6c0,0.3,0.2,0.2,0.3,0.2c1.2,0,2.4,0,3.6,0c0.1,0,0.3,0,0.4,0c0,0.6,0,1.1,0,1.7c0,0.1-0.2,0.2-0.3,0.2
			c-1.2,0-2.4,0-3.6,0c-0.5,0-0.5,0-0.5,0.5c0,0.6,0,1.2,0,1.7c0,0.3,0.1,0.4,0.4,0.4c1.3,0,2.6,0,3.9,0
			C66.8,22.9,66.9,22.9,67.1,22.9z"/>
		<path fill="#FFFFFF" d="M28.2,8.2c0.1-1.3,0.5-2.7,1.7-3.6c1.3-1,3-0.8,4.1,0.5c1.6,1.9,1.6,4.8,0,6.7c-1.2,1.4-3.5,1.4-4.7-0.1
			C28.6,10.7,28.2,9.6,28.2,8.2z"/>
		<path fill="#FFFFFF" d="M10.8,8.4c0,1.3-0.4,2.4-1.2,3.4c-1.2,1.3-2.9,1.4-4.1,0.4c-1.5-1.2-2.1-3.7-1.3-5.7
			C4.5,5.7,4.9,5,5.6,4.5c1.3-0.9,2.9-0.6,3.9,0.6C10.4,6,10.7,7.1,10.8,8.4z"/>
		<path fill="#FFFFFF" d="M57.9,21.7c0,0.8,0,1.5,0,2.2c0,0.1-0.1,0.2-0.2,0.2c-1.9,0.9-3.8,1.1-5.7,0.3c-1.1-0.4-1.8-1.2-2.2-2.2
			c-0.6-1.6-0.7-3.2,0-4.8c0.7-1.8,2.1-2.6,3.9-2.8c1.4-0.2,2.7,0,4,0.6c0.2,0.1,0.3,0.2,0.3,0.5c0,0.7,0,1.3,0,2.1
			c-0.2-0.1-0.3-0.2-0.5-0.2c-0.6-0.3-1.1-0.8-1.8-1c-1.5-0.5-3.1,0.1-3.6,1.9c-0.2,0.8-0.2,1.6-0.1,2.4c0.5,2,2.2,2.5,3.7,2.1
			c0.6-0.2,1.1-0.6,1.6-0.9C57.5,22,57.7,21.8,57.9,21.7z"/>
		<path fill="#FFFFFF" d="M47.7,16.5c-0.5,0-0.9,0-1.4,0c-0.2,0-0.3,0.1-0.3,0.3c0,2.1,0,4.1,0,6.2c0,0,0,0.1,0,0.2c0.5,0,1,0,1.6,0
			c0,0.6,0,1.1,0,1.6c0,0.1-0.2,0.2-0.2,0.2c-1.8,0-3.6,0-5.3,0c-0.1,0-0.2-0.1-0.2-0.2c0-0.5,0-1,0-1.5c0.5,0,0.9,0,1.3,0
			c0.3,0,0.4-0.1,0.4-0.4c0-2,0-3.9,0-5.9c0-0.3-0.1-0.4-0.4-0.4c-0.4,0-0.8,0-1.3,0c0-0.6,0-1.1,0-1.7c0.1,0,0.2,0,0.4,0
			c1.7,0,3.4,0,5,0c0.3,0,0.4,0.1,0.4,0.4C47.6,15.6,47.7,16,47.7,16.5z"/>
	</g>
</g>
</svg>
